HIERARCHY
ROOT hip
{
	OFFSET 0.000000 0.000000 0.000000 
	CHANNELS 6 Xposition Yposition Zposition Xrotation Zrotation Yrotation
	JOINT abdomen
	{
		OFFSET 0.000000 3.402643 0.000000 
		CHANNELS 3 Xrotation Zrotation Yrotation
		JOINT chest
		{
			OFFSET 0.000000 8.438565 -0.680529 
			CHANNELS 3 Xrotation Zrotation Yrotation
			JOINT neck
			{
				OFFSET 0.000000 10.207942 -0.272212 
				CHANNELS 3 Xrotation Zrotation Yrotation
				JOINT head
				{
					OFFSET 0.000000 3.130431 0.000000 
					CHANNELS 3 Xrotation Zrotation Yrotation
					End Site
					{
						OFFSET 0.000000 3.130435 0.000000 
					}
				}
			}
			JOINT lCollar
			{
				OFFSET 3.470700 6.669187 -0.816635 
				CHANNELS 3 Yrotation Zrotation Xrotation
				JOINT lShldr
				{
					OFFSET 3.198488 0.000000 0.000000 
					CHANNELS 3 Zrotation Yrotation Xrotation
					JOINT lForeArm
					{
						OFFSET 10.139888 0.000000 0.000000 
						CHANNELS 3 Yrotation Zrotation Xrotation
						JOINT lHand
						{
							OFFSET 8.370511 0.000000 0.000000 
							CHANNELS 3 Zrotation Yrotation Xrotation
							End Site
							{
								OFFSET 4.083176 0.000000 0.000000 
							}
						}
					}
				}
			}
			JOINT rCollar
			{
				OFFSET -3.470700 6.669187 -0.816635 
				CHANNELS 3 Yrotation Zrotation Xrotation
				JOINT rShldr
				{
					OFFSET -3.198488 0.000000 0.000000 
					CHANNELS 3 Zrotation Yrotation Xrotation
					JOINT rForeArm
					{
						OFFSET -10.139888 0.000000 0.000000 
						CHANNELS 3 Yrotation Zrotation Xrotation
						JOINT rHand
						{
							OFFSET -8.370511 0.000000 0.000000 
							CHANNELS 3 Zrotation Yrotation Xrotation
							End Site
							{
								OFFSET -4.083176 0.000000 0.000000 
							}
						}
					}
				}
			}
		}
	}
	JOINT lThigh
	{
		OFFSET 5.308129 -1.633274 1.361059 
		CHANNELS 3 Xrotation Zrotation Yrotation
		JOINT lShin
		{
			OFFSET -2.041588 -20.007561 0.000000 
			CHANNELS 3 Xrotation Zrotation Yrotation
			JOINT lFoot
			{
				OFFSET 0.000000 -19.190928 -1.224953 
				CHANNELS 3 Xrotation Yrotation Zrotation
				End Site
				{
					OFFSET 0.000000 -2.449906 4.627600 
				}
			}
		}
	}
	JOINT rThigh
	{
		OFFSET -5.308129 -1.633274 1.361059 
		CHANNELS 3 Xrotation Zrotation Yrotation
		JOINT rShin
		{
			OFFSET 2.041588 -20.007561 0.000000 
			CHANNELS 3 Xrotation Zrotation Yrotation
			JOINT rFoot
			{
				OFFSET 0.000000 -19.190928 -1.224953 
				CHANNELS 3 Xrotation Yrotation Zrotation
				End Site
				{
					OFFSET 0.000000 -2.449906 4.627600 
				}
			}
		}
	}
}
MOTION
Frames: 8
Frame Time: 0.016667
0.185640 44.194714 -0.600883 3.464900 3.860140 -1.612030 -19.738300 1.303380 0.611318 20.791599 3.984340 0.495480 13.635800 -7.781280 5.791410 13.857900 4.435010 2.812760 2.000000 -2.000000 0.000000 -87.068199 -0.463372 169.923004 30.859699 -0.332209 0.070186 0.044738 -0.005797 -138.992004 -2.000000 2.000000 0.000000 85.396698 -2.057910 166.488998 -30.889000 0.332173 0.070190 -0.055214 -0.006396 -131.141006 -12.511473 -9.750000 4.067432 25.655273 2.200191 2.217068 -14.376493 -1.417930 -0.675882 -18.149534 -3.471701 5.497955 39.523537 -2.505270 -2.810724 -22.505835 -0.272438 -0.475389 
0.212924 44.205753 -0.566238 3.405260 3.626420 -1.561520 -19.787100 1.258380 0.574706 20.752399 3.847630 0.472746 13.605700 -7.527930 5.702100 13.819900 4.512600 2.774170 2.000000 -2.000000 0.000000 -87.068001 -0.562151 169.445007 30.937799 -0.332114 0.070346 0.044753 -0.006207 -139.139008 -2.000000 2.000000 0.000000 85.347801 -1.950380 166.440994 -30.615601 0.332507 0.069629 -0.055342 -0.007620 -130.701004 -12.438677 -9.589378 3.815811 25.753008 2.202900 2.215742 -14.456997 -1.186046 -0.608644 -17.833481 -2.915364 6.608197 39.289165 -2.498796 -2.812922 -22.703323 -1.902218 -1.194167 
0.243701 44.226315 -0.510898 3.316470 3.422010 -1.461750 -19.777800 1.258570 0.491802 20.820900 3.818320 0.438131 13.536900 -7.393490 5.654120 13.800800 4.541780 2.758070 2.000000 -2.000000 0.000000 -87.341103 -0.642083 168.673004 30.967100 -0.332078 0.070406 0.044764 -0.006480 -139.235992 -2.000000 2.000000 0.000000 85.123299 -1.833390 166.529007 -30.478800 0.332673 0.069348 -0.055325 -0.007456 -130.759995 -12.306066 -9.513789 3.396067 25.809988 2.220638 2.208211 -14.481190 -0.864944 -0.503918 -17.556259 -2.643467 6.946789 39.141159 -2.508693 -2.799757 -22.362711 -2.193093 -1.288650 
0.274478 44.246883 -0.455560 3.237530 3.217520 -1.351040 -19.768499 1.255340 0.399762 20.889400 3.789000 0.393681 13.468600 -7.268450 5.603560 13.781800 4.580580 2.733830 2.000000 -2.000000 0.000000 -87.614197 -0.722011 167.901993 30.996401 -0.332042 0.070466 0.044775 -0.006753 -139.334000 -2.000000 2.000000 0.000000 84.898697 -1.716410 166.617004 -30.342100 0.332838 0.069067 -0.055304 -0.007266 -130.828003 -12.204618 -9.446838 2.950552 25.906536 2.238333 2.210098 -14.528147 -0.513008 -0.437757 -17.305513 -2.367138 7.285532 39.023064 -2.515339 -2.793998 -21.990652 -2.455620 -1.385126 
0.306761 44.267956 -0.419879 3.246800 3.051740 -1.086450 -19.798100 1.262150 0.334481 20.889400 3.808530 0.364500 13.433000 -7.101930 5.474260 13.802000 4.618770 2.683410 2.000000 -2.000000 0.000000 -87.799698 -0.751171 167.960999 31.006201 -0.332030 0.070486 0.044850 -0.008338 -139.899994 -2.000000 2.000000 0.000000 84.673698 -1.597570 165.904007 -30.224899 0.332979 0.068825 -0.055522 -0.009195 -130.134995 -12.138493 -9.379778 2.607913 25.877296 2.236422 2.210306 -14.522463 -0.396663 -0.419720 -17.129976 -2.299662 7.093997 38.864788 -2.526877 -2.771751 -21.870277 -2.470322 -1.402110 
0.339043 44.289154 -0.384198 3.265870 2.885940 -0.821438 -19.827801 1.278140 0.265861 20.889400 3.818300 0.335261 13.397900 -6.944840 5.342500 13.822100 4.647320 2.631360 2.000000 -2.000000 0.000000 -87.985298 -0.770588 168.009995 31.006201 -0.332030 0.070486 0.044940 -0.009921 -140.466995 -2.000000 2.000000 0.000000 84.438904 -1.478710 165.182007 -30.107700 0.333119 0.068584 -0.055763 -0.011122 -129.440994 -12.094862 -9.316154 2.260286 25.896629 2.239669 2.210656 -14.516564 -0.263720 -0.381821 -16.994659 -2.228831 6.910009 38.736683 -2.537406 -2.767802 -21.752199 -2.470601 -1.398862 
0.354797 44.307018 -0.342572 3.314480 2.788300 -0.609785 -19.867001 1.280210 0.243548 20.879700 3.886660 0.325241 13.138000 -6.591540 5.146530 13.735500 4.744990 2.552780 2.000000 -2.000000 0.000000 -88.180702 -0.760435 168.175003 30.967100 -0.332078 0.070406 0.044956 -0.010167 -140.554993 -2.000000 2.000000 0.000000 84.116501 -1.507720 165.054993 -30.273800 0.332920 0.068926 -0.055624 -0.010037 -129.832001 -12.052847 -9.242602 2.193194 25.806339 2.251619 2.185760 -14.503664 -0.367837 -0.426228 -16.916103 -2.286644 6.412795 38.637913 -2.540546 -2.751436 -21.688231 -2.242796 -1.324128 
0.370550 44.324886 -0.300947 3.353310 2.690700 -0.398757 -19.916000 1.282210 0.221043 20.869900 3.945250 0.315142 12.868500 -6.227170 4.960800 13.658700 4.842530 2.474720 2.000000 -2.000000 0.000000 -88.366302 -0.750304 168.332001 30.937799 -0.332114 0.070346 0.044973 -0.010440 -140.651993 -2.000000 2.000000 0.000000 83.794197 -1.536720 164.927994 -30.430000 0.332732 0.069248 -0.055493 -0.008951 -130.223007 -12.050415 -9.165030 2.139985 25.765574 2.261479 2.169203 -14.478831 -0.502391 -0.486665 -16.780294 -2.349537 5.948233 38.413860 -2.531088 -2.761917 -21.557247 -1.984133 -1.218223 
